<svg xmlns="http://www.w3.org/2000/svg" viewBox="0 0 128 128" role="img" aria-label="GreenSupply logo">
  <g fill="none" stroke="#6EA24B" stroke-linecap="round" stroke-linejoin="round">
    <path d="M16 39h26c3.7 0 7 2.5 8 6.1L62 88" stroke-width="7"/>
    <path d="M16 39h26" stroke-width="7"/>
    <path d="M62 88l57-7.6c3-.4 5.5-2.4 6.3-5.3L135 47" stroke-width="7" transform="translate(-20 0)"/>
    <path d="M56 88c-5.7 0-10.4 4.6-10.4 10.4S50.3 109 56 109h63" stroke-width="7"/>
    <path d="M81 85c1-9.4 3.9-16.7 8.5-22.2 6.9-8.2 17.4-12.6 31.5-16.3-.6 11.4-4 20.2-10.4 26.5-5.1 5.1-11.6 8.3-19.5 9.8z" fill="#6EA24B" stroke-width="2"/>
    <path d="M76 83c-.8-6.6-2.9-11.8-6.5-15.6-4.9-5.2-12.4-8.1-22.5-10.5.4 8.1 2.8 14.4 7.3 19 3.7 3.7 8.4 6.1 14.3 7.3z" fill="#6EA24B" stroke-width="2"/>
    <path d="M82 86l1.4-14.5" stroke-width="6"/>
  </g>
</svg>
